<mxfile host="app.diagrams.net" agent="Mozilla/5.0 (Windows NT 10.0; Win64; x64; rv:137.0) Gecko/20100101 Firefox/137.0" version="26.2.10">
  <diagram name="Page-1" id="SJn_idnGUMeTcrl6Irgf">
    <mxGraphModel dx="1228" dy="662" grid="1" gridSize="10" guides="1" tooltips="1" connect="1" arrows="1" fold="1" page="1" pageScale="1" pageWidth="850" pageHeight="1100" math="0" shadow="0">
      <root>
        <mxCell id="0" />
        <mxCell id="1" parent="0" />
        <mxCell id="cjGsYmpgyJE01i0ZJRMN-10" style="edgeStyle=orthogonalEdgeStyle;rounded=0;orthogonalLoop=1;jettySize=auto;html=1;exitX=0.5;exitY=1;exitDx=0;exitDy=0;entryX=0.5;entryY=0;entryDx=0;entryDy=0;endArrow=none;startFill=0;" edge="1" parent="1" source="cjGsYmpgyJE01i0ZJRMN-3" target="cjGsYmpgyJE01i0ZJRMN-7">
          <mxGeometry relative="1" as="geometry" />
        </mxCell>
        <mxCell id="cjGsYmpgyJE01i0ZJRMN-12" style="edgeStyle=orthogonalEdgeStyle;rounded=0;orthogonalLoop=1;jettySize=auto;html=1;exitX=1;exitY=0.5;exitDx=0;exitDy=0;entryX=0;entryY=0.5;entryDx=0;entryDy=0;endArrow=none;startFill=0;" edge="1" parent="1" source="cjGsYmpgyJE01i0ZJRMN-3" target="cjGsYmpgyJE01i0ZJRMN-8">
          <mxGeometry relative="1" as="geometry" />
        </mxCell>
        <mxCell id="cjGsYmpgyJE01i0ZJRMN-25" style="rounded=0;orthogonalLoop=1;jettySize=auto;html=1;exitX=0.75;exitY=0;exitDx=0;exitDy=0;entryX=0.5;entryY=1;entryDx=0;entryDy=0;endArrow=none;startFill=0;" edge="1" parent="1" source="cjGsYmpgyJE01i0ZJRMN-3" target="cjGsYmpgyJE01i0ZJRMN-20">
          <mxGeometry relative="1" as="geometry" />
        </mxCell>
        <mxCell id="cjGsYmpgyJE01i0ZJRMN-26" style="edgeStyle=none;shape=connector;rounded=0;orthogonalLoop=1;jettySize=auto;html=1;exitX=0.5;exitY=0;exitDx=0;exitDy=0;entryX=1;entryY=1;entryDx=0;entryDy=0;strokeColor=default;align=center;verticalAlign=middle;fontFamily=Helvetica;fontSize=11;fontColor=default;labelBackgroundColor=default;startFill=0;endArrow=none;" edge="1" parent="1" source="cjGsYmpgyJE01i0ZJRMN-3" target="cjGsYmpgyJE01i0ZJRMN-21">
          <mxGeometry relative="1" as="geometry" />
        </mxCell>
        <mxCell id="cjGsYmpgyJE01i0ZJRMN-27" style="edgeStyle=none;shape=connector;rounded=0;orthogonalLoop=1;jettySize=auto;html=1;exitX=0.25;exitY=0;exitDx=0;exitDy=0;entryX=1;entryY=1;entryDx=0;entryDy=0;strokeColor=default;align=center;verticalAlign=middle;fontFamily=Helvetica;fontSize=11;fontColor=default;labelBackgroundColor=default;startFill=0;endArrow=none;" edge="1" parent="1" source="cjGsYmpgyJE01i0ZJRMN-3" target="cjGsYmpgyJE01i0ZJRMN-22">
          <mxGeometry relative="1" as="geometry" />
        </mxCell>
        <mxCell id="cjGsYmpgyJE01i0ZJRMN-28" style="edgeStyle=none;shape=connector;rounded=0;orthogonalLoop=1;jettySize=auto;html=1;exitX=0;exitY=0.25;exitDx=0;exitDy=0;entryX=1;entryY=0.5;entryDx=0;entryDy=0;strokeColor=default;align=center;verticalAlign=middle;fontFamily=Helvetica;fontSize=11;fontColor=default;labelBackgroundColor=default;startFill=0;endArrow=none;" edge="1" parent="1" source="cjGsYmpgyJE01i0ZJRMN-3" target="cjGsYmpgyJE01i0ZJRMN-23">
          <mxGeometry relative="1" as="geometry" />
        </mxCell>
        <mxCell id="cjGsYmpgyJE01i0ZJRMN-29" style="edgeStyle=none;shape=connector;rounded=0;orthogonalLoop=1;jettySize=auto;html=1;exitX=0;exitY=0.75;exitDx=0;exitDy=0;entryX=1;entryY=0.5;entryDx=0;entryDy=0;strokeColor=default;align=center;verticalAlign=middle;fontFamily=Helvetica;fontSize=11;fontColor=default;labelBackgroundColor=default;startFill=0;endArrow=none;" edge="1" parent="1" source="cjGsYmpgyJE01i0ZJRMN-3" target="cjGsYmpgyJE01i0ZJRMN-24">
          <mxGeometry relative="1" as="geometry" />
        </mxCell>
        <mxCell id="cjGsYmpgyJE01i0ZJRMN-3" value="User" style="rounded=0;whiteSpace=wrap;html=1;" vertex="1" parent="1">
          <mxGeometry x="240" y="180" width="120" height="60" as="geometry" />
        </mxCell>
        <mxCell id="cjGsYmpgyJE01i0ZJRMN-18" style="rounded=0;orthogonalLoop=1;jettySize=auto;html=1;exitX=1;exitY=0;exitDx=0;exitDy=0;entryX=0.5;entryY=1;entryDx=0;entryDy=0;endArrow=none;startFill=0;" edge="1" parent="1" source="cjGsYmpgyJE01i0ZJRMN-4" target="cjGsYmpgyJE01i0ZJRMN-17">
          <mxGeometry relative="1" as="geometry" />
        </mxCell>
        <mxCell id="cjGsYmpgyJE01i0ZJRMN-38" style="edgeStyle=none;shape=connector;rounded=0;orthogonalLoop=1;jettySize=auto;html=1;exitX=0.25;exitY=0;exitDx=0;exitDy=0;entryX=1;entryY=1;entryDx=0;entryDy=0;strokeColor=default;align=center;verticalAlign=middle;fontFamily=Helvetica;fontSize=11;fontColor=default;labelBackgroundColor=default;startFill=0;endArrow=none;" edge="1" parent="1" source="cjGsYmpgyJE01i0ZJRMN-4" target="cjGsYmpgyJE01i0ZJRMN-34">
          <mxGeometry relative="1" as="geometry" />
        </mxCell>
        <mxCell id="cjGsYmpgyJE01i0ZJRMN-39" style="edgeStyle=none;shape=connector;rounded=0;orthogonalLoop=1;jettySize=auto;html=1;exitX=0;exitY=0;exitDx=0;exitDy=0;entryX=1;entryY=0.5;entryDx=0;entryDy=0;strokeColor=default;align=center;verticalAlign=middle;fontFamily=Helvetica;fontSize=11;fontColor=default;labelBackgroundColor=default;startFill=0;endArrow=none;" edge="1" parent="1" source="cjGsYmpgyJE01i0ZJRMN-4" target="cjGsYmpgyJE01i0ZJRMN-30">
          <mxGeometry relative="1" as="geometry" />
        </mxCell>
        <mxCell id="cjGsYmpgyJE01i0ZJRMN-40" style="edgeStyle=none;shape=connector;rounded=0;orthogonalLoop=1;jettySize=auto;html=1;exitX=0;exitY=0.25;exitDx=0;exitDy=0;entryX=1;entryY=0.5;entryDx=0;entryDy=0;strokeColor=default;align=center;verticalAlign=middle;fontFamily=Helvetica;fontSize=11;fontColor=default;labelBackgroundColor=default;startFill=0;endArrow=none;" edge="1" parent="1" source="cjGsYmpgyJE01i0ZJRMN-4" target="cjGsYmpgyJE01i0ZJRMN-31">
          <mxGeometry relative="1" as="geometry" />
        </mxCell>
        <mxCell id="cjGsYmpgyJE01i0ZJRMN-41" style="edgeStyle=none;shape=connector;rounded=0;orthogonalLoop=1;jettySize=auto;html=1;exitX=0;exitY=0.5;exitDx=0;exitDy=0;entryX=1;entryY=0.5;entryDx=0;entryDy=0;strokeColor=default;align=center;verticalAlign=middle;fontFamily=Helvetica;fontSize=11;fontColor=default;labelBackgroundColor=default;startFill=0;endArrow=none;" edge="1" parent="1" source="cjGsYmpgyJE01i0ZJRMN-4" target="cjGsYmpgyJE01i0ZJRMN-32">
          <mxGeometry relative="1" as="geometry" />
        </mxCell>
        <mxCell id="cjGsYmpgyJE01i0ZJRMN-42" style="edgeStyle=none;shape=connector;rounded=0;orthogonalLoop=1;jettySize=auto;html=1;exitX=0;exitY=0.75;exitDx=0;exitDy=0;entryX=1;entryY=0;entryDx=0;entryDy=0;strokeColor=default;align=center;verticalAlign=middle;fontFamily=Helvetica;fontSize=11;fontColor=default;labelBackgroundColor=default;startFill=0;endArrow=none;" edge="1" parent="1" source="cjGsYmpgyJE01i0ZJRMN-4" target="cjGsYmpgyJE01i0ZJRMN-33">
          <mxGeometry relative="1" as="geometry" />
        </mxCell>
        <mxCell id="cjGsYmpgyJE01i0ZJRMN-44" style="edgeStyle=none;shape=connector;rounded=0;orthogonalLoop=1;jettySize=auto;html=1;exitX=0.25;exitY=1;exitDx=0;exitDy=0;entryX=1;entryY=0;entryDx=0;entryDy=0;strokeColor=default;align=center;verticalAlign=middle;fontFamily=Helvetica;fontSize=11;fontColor=default;labelBackgroundColor=default;startFill=0;endArrow=none;" edge="1" parent="1" source="cjGsYmpgyJE01i0ZJRMN-4" target="cjGsYmpgyJE01i0ZJRMN-35">
          <mxGeometry relative="1" as="geometry" />
        </mxCell>
        <mxCell id="cjGsYmpgyJE01i0ZJRMN-45" style="edgeStyle=none;shape=connector;rounded=0;orthogonalLoop=1;jettySize=auto;html=1;exitX=0.5;exitY=1;exitDx=0;exitDy=0;entryX=1;entryY=0;entryDx=0;entryDy=0;strokeColor=default;align=center;verticalAlign=middle;fontFamily=Helvetica;fontSize=11;fontColor=default;labelBackgroundColor=default;startFill=0;endArrow=none;" edge="1" parent="1" source="cjGsYmpgyJE01i0ZJRMN-4" target="cjGsYmpgyJE01i0ZJRMN-36">
          <mxGeometry relative="1" as="geometry" />
        </mxCell>
        <mxCell id="cjGsYmpgyJE01i0ZJRMN-46" style="edgeStyle=none;shape=connector;rounded=0;orthogonalLoop=1;jettySize=auto;html=1;exitX=0.75;exitY=1;exitDx=0;exitDy=0;entryX=0.5;entryY=0;entryDx=0;entryDy=0;strokeColor=default;align=center;verticalAlign=middle;fontFamily=Helvetica;fontSize=11;fontColor=default;labelBackgroundColor=default;startFill=0;endArrow=none;" edge="1" parent="1" source="cjGsYmpgyJE01i0ZJRMN-4" target="cjGsYmpgyJE01i0ZJRMN-37">
          <mxGeometry relative="1" as="geometry" />
        </mxCell>
        <mxCell id="cjGsYmpgyJE01i0ZJRMN-4" value="Movie" style="rounded=0;whiteSpace=wrap;html=1;" vertex="1" parent="1">
          <mxGeometry x="240" y="560" width="120" height="60" as="geometry" />
        </mxCell>
        <mxCell id="cjGsYmpgyJE01i0ZJRMN-54" style="edgeStyle=none;shape=connector;rounded=0;orthogonalLoop=1;jettySize=auto;html=1;exitX=0.25;exitY=0;exitDx=0;exitDy=0;entryX=0.5;entryY=1;entryDx=0;entryDy=0;strokeColor=default;align=center;verticalAlign=middle;fontFamily=Helvetica;fontSize=11;fontColor=default;labelBackgroundColor=default;startFill=0;endArrow=none;" edge="1" parent="1" source="cjGsYmpgyJE01i0ZJRMN-5" target="cjGsYmpgyJE01i0ZJRMN-47">
          <mxGeometry relative="1" as="geometry" />
        </mxCell>
        <mxCell id="cjGsYmpgyJE01i0ZJRMN-55" style="edgeStyle=none;shape=connector;rounded=0;orthogonalLoop=1;jettySize=auto;html=1;exitX=0.5;exitY=0;exitDx=0;exitDy=0;entryX=0;entryY=1;entryDx=0;entryDy=0;strokeColor=default;align=center;verticalAlign=middle;fontFamily=Helvetica;fontSize=11;fontColor=default;labelBackgroundColor=default;startFill=0;endArrow=none;" edge="1" parent="1" source="cjGsYmpgyJE01i0ZJRMN-5" target="cjGsYmpgyJE01i0ZJRMN-48">
          <mxGeometry relative="1" as="geometry" />
        </mxCell>
        <mxCell id="cjGsYmpgyJE01i0ZJRMN-56" style="edgeStyle=none;shape=connector;rounded=0;orthogonalLoop=1;jettySize=auto;html=1;exitX=0.75;exitY=0;exitDx=0;exitDy=0;entryX=0;entryY=1;entryDx=0;entryDy=0;strokeColor=default;align=center;verticalAlign=middle;fontFamily=Helvetica;fontSize=11;fontColor=default;labelBackgroundColor=default;startFill=0;endArrow=none;" edge="1" parent="1" source="cjGsYmpgyJE01i0ZJRMN-5" target="cjGsYmpgyJE01i0ZJRMN-49">
          <mxGeometry relative="1" as="geometry" />
        </mxCell>
        <mxCell id="cjGsYmpgyJE01i0ZJRMN-57" style="edgeStyle=none;shape=connector;rounded=0;orthogonalLoop=1;jettySize=auto;html=1;exitX=1;exitY=0.25;exitDx=0;exitDy=0;entryX=0;entryY=0.5;entryDx=0;entryDy=0;strokeColor=default;align=center;verticalAlign=middle;fontFamily=Helvetica;fontSize=11;fontColor=default;labelBackgroundColor=default;startFill=0;endArrow=none;" edge="1" parent="1" source="cjGsYmpgyJE01i0ZJRMN-5" target="cjGsYmpgyJE01i0ZJRMN-50">
          <mxGeometry relative="1" as="geometry" />
        </mxCell>
        <mxCell id="cjGsYmpgyJE01i0ZJRMN-58" style="edgeStyle=none;shape=connector;rounded=0;orthogonalLoop=1;jettySize=auto;html=1;exitX=1;exitY=0.5;exitDx=0;exitDy=0;entryX=0;entryY=0.5;entryDx=0;entryDy=0;strokeColor=default;align=center;verticalAlign=middle;fontFamily=Helvetica;fontSize=11;fontColor=default;labelBackgroundColor=default;startFill=0;endArrow=none;" edge="1" parent="1" source="cjGsYmpgyJE01i0ZJRMN-5" target="cjGsYmpgyJE01i0ZJRMN-51">
          <mxGeometry relative="1" as="geometry" />
        </mxCell>
        <mxCell id="cjGsYmpgyJE01i0ZJRMN-59" style="edgeStyle=none;shape=connector;rounded=0;orthogonalLoop=1;jettySize=auto;html=1;exitX=1;exitY=0.75;exitDx=0;exitDy=0;entryX=0;entryY=0.5;entryDx=0;entryDy=0;strokeColor=default;align=center;verticalAlign=middle;fontFamily=Helvetica;fontSize=11;fontColor=default;labelBackgroundColor=default;startFill=0;endArrow=none;" edge="1" parent="1" source="cjGsYmpgyJE01i0ZJRMN-5" target="cjGsYmpgyJE01i0ZJRMN-52">
          <mxGeometry relative="1" as="geometry" />
        </mxCell>
        <mxCell id="cjGsYmpgyJE01i0ZJRMN-5" value="WatchHistory" style="rounded=0;whiteSpace=wrap;html=1;" vertex="1" parent="1">
          <mxGeometry x="680" y="180" width="120" height="60" as="geometry" />
        </mxCell>
        <mxCell id="cjGsYmpgyJE01i0ZJRMN-64" style="edgeStyle=none;shape=connector;rounded=0;orthogonalLoop=1;jettySize=auto;html=1;exitX=0.25;exitY=1;exitDx=0;exitDy=0;entryX=1;entryY=0;entryDx=0;entryDy=0;strokeColor=default;align=center;verticalAlign=middle;fontFamily=Helvetica;fontSize=11;fontColor=default;labelBackgroundColor=default;startFill=0;endArrow=none;" edge="1" parent="1" source="cjGsYmpgyJE01i0ZJRMN-6" target="cjGsYmpgyJE01i0ZJRMN-60">
          <mxGeometry relative="1" as="geometry" />
        </mxCell>
        <mxCell id="cjGsYmpgyJE01i0ZJRMN-65" style="edgeStyle=none;shape=connector;rounded=0;orthogonalLoop=1;jettySize=auto;html=1;exitX=0.5;exitY=1;exitDx=0;exitDy=0;entryX=0.5;entryY=0;entryDx=0;entryDy=0;strokeColor=default;align=center;verticalAlign=middle;fontFamily=Helvetica;fontSize=11;fontColor=default;labelBackgroundColor=default;startFill=0;endArrow=none;" edge="1" parent="1" source="cjGsYmpgyJE01i0ZJRMN-6" target="cjGsYmpgyJE01i0ZJRMN-61">
          <mxGeometry relative="1" as="geometry" />
        </mxCell>
        <mxCell id="cjGsYmpgyJE01i0ZJRMN-66" style="edgeStyle=none;shape=connector;rounded=0;orthogonalLoop=1;jettySize=auto;html=1;exitX=0.75;exitY=1;exitDx=0;exitDy=0;entryX=0;entryY=0;entryDx=0;entryDy=0;strokeColor=default;align=center;verticalAlign=middle;fontFamily=Helvetica;fontSize=11;fontColor=default;labelBackgroundColor=default;startFill=0;endArrow=none;" edge="1" parent="1" source="cjGsYmpgyJE01i0ZJRMN-6" target="cjGsYmpgyJE01i0ZJRMN-62">
          <mxGeometry relative="1" as="geometry" />
        </mxCell>
        <mxCell id="cjGsYmpgyJE01i0ZJRMN-6" value="Genre" style="rounded=0;whiteSpace=wrap;html=1;" vertex="1" parent="1">
          <mxGeometry x="680" y="560" width="120" height="60" as="geometry" />
        </mxCell>
        <mxCell id="cjGsYmpgyJE01i0ZJRMN-11" style="edgeStyle=orthogonalEdgeStyle;rounded=0;orthogonalLoop=1;jettySize=auto;html=1;exitX=0.5;exitY=1;exitDx=0;exitDy=0;entryX=0.5;entryY=0;entryDx=0;entryDy=0;" edge="1" parent="1" source="cjGsYmpgyJE01i0ZJRMN-7" target="cjGsYmpgyJE01i0ZJRMN-4">
          <mxGeometry relative="1" as="geometry" />
        </mxCell>
        <mxCell id="cjGsYmpgyJE01i0ZJRMN-7" value="watches" style="rhombus;whiteSpace=wrap;html=1;" vertex="1" parent="1">
          <mxGeometry x="260" y="360" width="80" height="80" as="geometry" />
        </mxCell>
        <mxCell id="cjGsYmpgyJE01i0ZJRMN-13" style="edgeStyle=orthogonalEdgeStyle;rounded=0;orthogonalLoop=1;jettySize=auto;html=1;exitX=1;exitY=0.5;exitDx=0;exitDy=0;entryX=0;entryY=0.5;entryDx=0;entryDy=0;" edge="1" parent="1" source="cjGsYmpgyJE01i0ZJRMN-8" target="cjGsYmpgyJE01i0ZJRMN-5">
          <mxGeometry relative="1" as="geometry" />
        </mxCell>
        <mxCell id="cjGsYmpgyJE01i0ZJRMN-8" value="accesses" style="rhombus;whiteSpace=wrap;html=1;" vertex="1" parent="1">
          <mxGeometry x="480" y="170" width="80" height="80" as="geometry" />
        </mxCell>
        <mxCell id="cjGsYmpgyJE01i0ZJRMN-15" style="edgeStyle=orthogonalEdgeStyle;rounded=0;orthogonalLoop=1;jettySize=auto;html=1;exitX=0;exitY=0.5;exitDx=0;exitDy=0;entryX=1;entryY=0.5;entryDx=0;entryDy=0;" edge="1" parent="1" source="cjGsYmpgyJE01i0ZJRMN-9" target="cjGsYmpgyJE01i0ZJRMN-4">
          <mxGeometry relative="1" as="geometry" />
        </mxCell>
        <mxCell id="cjGsYmpgyJE01i0ZJRMN-16" style="edgeStyle=orthogonalEdgeStyle;rounded=0;orthogonalLoop=1;jettySize=auto;html=1;exitX=1;exitY=0.5;exitDx=0;exitDy=0;entryX=0;entryY=0.5;entryDx=0;entryDy=0;" edge="1" parent="1" source="cjGsYmpgyJE01i0ZJRMN-9" target="cjGsYmpgyJE01i0ZJRMN-6">
          <mxGeometry relative="1" as="geometry" />
        </mxCell>
        <mxCell id="cjGsYmpgyJE01i0ZJRMN-9" value="defines" style="rhombus;whiteSpace=wrap;html=1;" vertex="1" parent="1">
          <mxGeometry x="480" y="550" width="80" height="80" as="geometry" />
        </mxCell>
        <mxCell id="cjGsYmpgyJE01i0ZJRMN-19" style="rounded=0;orthogonalLoop=1;jettySize=auto;html=1;exitX=0.5;exitY=0;exitDx=0;exitDy=0;entryX=0;entryY=1;entryDx=0;entryDy=0;" edge="1" parent="1" source="cjGsYmpgyJE01i0ZJRMN-17" target="cjGsYmpgyJE01i0ZJRMN-5">
          <mxGeometry relative="1" as="geometry" />
        </mxCell>
        <mxCell id="cjGsYmpgyJE01i0ZJRMN-17" value="appears in" style="rhombus;whiteSpace=wrap;html=1;rotation=45;" vertex="1" parent="1">
          <mxGeometry x="480" y="360" width="80" height="80" as="geometry" />
        </mxCell>
        <mxCell id="cjGsYmpgyJE01i0ZJRMN-20" value="userID" style="ellipse;whiteSpace=wrap;html=1;strokeColor=default;align=center;verticalAlign=middle;fontFamily=Helvetica;fontSize=12;fontColor=default;fillColor=default;" vertex="1" parent="1">
          <mxGeometry x="280" y="100" width="80" height="30" as="geometry" />
        </mxCell>
        <mxCell id="cjGsYmpgyJE01i0ZJRMN-21" value="email" style="ellipse;whiteSpace=wrap;html=1;strokeColor=default;align=center;verticalAlign=middle;fontFamily=Helvetica;fontSize=12;fontColor=default;fillColor=default;" vertex="1" parent="1">
          <mxGeometry x="200" y="110" width="80" height="30" as="geometry" />
        </mxCell>
        <mxCell id="cjGsYmpgyJE01i0ZJRMN-22" value="password" style="ellipse;whiteSpace=wrap;html=1;strokeColor=default;align=center;verticalAlign=middle;fontFamily=Helvetica;fontSize=12;fontColor=default;fillColor=default;" vertex="1" parent="1">
          <mxGeometry x="130" y="130" width="80" height="30" as="geometry" />
        </mxCell>
        <mxCell id="cjGsYmpgyJE01i0ZJRMN-23" value="username" style="ellipse;whiteSpace=wrap;html=1;strokeColor=default;align=center;verticalAlign=middle;fontFamily=Helvetica;fontSize=12;fontColor=default;fillColor=default;" vertex="1" parent="1">
          <mxGeometry x="100" y="170" width="80" height="30" as="geometry" />
        </mxCell>
        <mxCell id="cjGsYmpgyJE01i0ZJRMN-24" value="isAdmin" style="ellipse;whiteSpace=wrap;html=1;strokeColor=default;align=center;verticalAlign=middle;fontFamily=Helvetica;fontSize=12;fontColor=default;fillColor=default;" vertex="1" parent="1">
          <mxGeometry x="110" y="210" width="80" height="30" as="geometry" />
        </mxCell>
        <mxCell id="cjGsYmpgyJE01i0ZJRMN-30" value="movieID" style="ellipse;whiteSpace=wrap;html=1;strokeColor=default;align=center;verticalAlign=middle;fontFamily=Helvetica;fontSize=12;fontColor=default;fillColor=default;labelBackgroundColor=default;" vertex="1" parent="1">
          <mxGeometry x="110" y="515" width="80" height="30" as="geometry" />
        </mxCell>
        <mxCell id="cjGsYmpgyJE01i0ZJRMN-31" value="name" style="ellipse;whiteSpace=wrap;html=1;strokeColor=default;align=center;verticalAlign=middle;fontFamily=Helvetica;fontSize=12;fontColor=default;fillColor=default;labelBackgroundColor=default;" vertex="1" parent="1">
          <mxGeometry x="90" y="550" width="80" height="30" as="geometry" />
        </mxCell>
        <mxCell id="cjGsYmpgyJE01i0ZJRMN-32" value="summary" style="ellipse;whiteSpace=wrap;html=1;strokeColor=default;align=center;verticalAlign=middle;fontFamily=Helvetica;fontSize=12;fontColor=default;fillColor=default;labelBackgroundColor=default;" vertex="1" parent="1">
          <mxGeometry x="90" y="585" width="80" height="30" as="geometry" />
        </mxCell>
        <mxCell id="cjGsYmpgyJE01i0ZJRMN-33" value="thumbnail" style="ellipse;whiteSpace=wrap;html=1;strokeColor=default;align=center;verticalAlign=middle;fontFamily=Helvetica;fontSize=12;fontColor=default;fillColor=default;labelBackgroundColor=default;" vertex="1" parent="1">
          <mxGeometry x="110" y="620" width="80" height="30" as="geometry" />
        </mxCell>
        <mxCell id="cjGsYmpgyJE01i0ZJRMN-34" value="releaseYear" style="ellipse;whiteSpace=wrap;html=1;strokeColor=default;align=center;verticalAlign=middle;fontFamily=Helvetica;fontSize=12;fontColor=default;fillColor=default;labelBackgroundColor=default;" vertex="1" parent="1">
          <mxGeometry x="150" y="485" width="80" height="30" as="geometry" />
        </mxCell>
        <mxCell id="cjGsYmpgyJE01i0ZJRMN-35" value="length" style="ellipse;whiteSpace=wrap;html=1;strokeColor=default;align=center;verticalAlign=middle;fontFamily=Helvetica;fontSize=12;fontColor=default;fillColor=default;labelBackgroundColor=default;" vertex="1" parent="1">
          <mxGeometry x="150" y="650" width="80" height="30" as="geometry" />
        </mxCell>
        <mxCell id="cjGsYmpgyJE01i0ZJRMN-36" value="director" style="ellipse;whiteSpace=wrap;html=1;strokeColor=default;align=center;verticalAlign=middle;fontFamily=Helvetica;fontSize=12;fontColor=default;fillColor=default;labelBackgroundColor=default;" vertex="1" parent="1">
          <mxGeometry x="210" y="675" width="80" height="30" as="geometry" />
        </mxCell>
        <mxCell id="cjGsYmpgyJE01i0ZJRMN-37" value="rating" style="ellipse;whiteSpace=wrap;html=1;strokeColor=default;align=center;verticalAlign=middle;fontFamily=Helvetica;fontSize=12;fontColor=default;fillColor=default;labelBackgroundColor=default;" vertex="1" parent="1">
          <mxGeometry x="290" y="690" width="80" height="30" as="geometry" />
        </mxCell>
        <mxCell id="cjGsYmpgyJE01i0ZJRMN-47" value="viewID" style="ellipse;whiteSpace=wrap;html=1;strokeColor=default;align=center;verticalAlign=middle;fontFamily=Helvetica;fontSize=12;fontColor=default;fillColor=default;labelBackgroundColor=default;" vertex="1" parent="1">
          <mxGeometry x="660" y="100" width="80" height="30" as="geometry" />
        </mxCell>
        <mxCell id="cjGsYmpgyJE01i0ZJRMN-48" value="userID" style="ellipse;whiteSpace=wrap;html=1;strokeColor=default;align=center;verticalAlign=middle;fontFamily=Helvetica;fontSize=12;fontColor=default;fillColor=default;labelBackgroundColor=default;" vertex="1" parent="1">
          <mxGeometry x="745" y="90" width="80" height="30" as="geometry" />
        </mxCell>
        <mxCell id="cjGsYmpgyJE01i0ZJRMN-49" value="movieID" style="ellipse;whiteSpace=wrap;html=1;strokeColor=default;align=center;verticalAlign=middle;fontFamily=Helvetica;fontSize=12;fontColor=default;fillColor=default;labelBackgroundColor=default;" vertex="1" parent="1">
          <mxGeometry x="820" y="110" width="80" height="30" as="geometry" />
        </mxCell>
        <mxCell id="cjGsYmpgyJE01i0ZJRMN-50" value="dateWatched" style="ellipse;whiteSpace=wrap;html=1;strokeColor=default;align=center;verticalAlign=middle;fontFamily=Helvetica;fontSize=12;fontColor=default;fillColor=default;labelBackgroundColor=default;" vertex="1" parent="1">
          <mxGeometry x="860" y="145" width="80" height="30" as="geometry" />
        </mxCell>
        <mxCell id="cjGsYmpgyJE01i0ZJRMN-51" value="lengthWatched" style="ellipse;whiteSpace=wrap;html=1;strokeColor=default;align=center;verticalAlign=middle;fontFamily=Helvetica;fontSize=12;fontColor=default;fillColor=default;labelBackgroundColor=default;" vertex="1" parent="1">
          <mxGeometry x="870" y="180" width="100" height="30" as="geometry" />
        </mxCell>
        <mxCell id="cjGsYmpgyJE01i0ZJRMN-52" value="isFinished" style="ellipse;whiteSpace=wrap;html=1;strokeColor=default;align=center;verticalAlign=middle;fontFamily=Helvetica;fontSize=12;fontColor=default;fillColor=default;labelBackgroundColor=default;" vertex="1" parent="1">
          <mxGeometry x="860" y="220" width="80" height="30" as="geometry" />
        </mxCell>
        <mxCell id="cjGsYmpgyJE01i0ZJRMN-60" value="genreID" style="ellipse;whiteSpace=wrap;html=1;strokeColor=default;align=center;verticalAlign=middle;fontFamily=Helvetica;fontSize=12;fontColor=default;fillColor=default;labelBackgroundColor=default;" vertex="1" parent="1">
          <mxGeometry x="620" y="670" width="80" height="30" as="geometry" />
        </mxCell>
        <mxCell id="cjGsYmpgyJE01i0ZJRMN-61" value="name" style="ellipse;whiteSpace=wrap;html=1;strokeColor=default;align=center;verticalAlign=middle;fontFamily=Helvetica;fontSize=12;fontColor=default;fillColor=default;labelBackgroundColor=default;" vertex="1" parent="1">
          <mxGeometry x="700" y="680" width="80" height="30" as="geometry" />
        </mxCell>
        <mxCell id="cjGsYmpgyJE01i0ZJRMN-62" value="description" style="ellipse;whiteSpace=wrap;html=1;strokeColor=default;align=center;verticalAlign=middle;fontFamily=Helvetica;fontSize=12;fontColor=default;fillColor=default;labelBackgroundColor=default;" vertex="1" parent="1">
          <mxGeometry x="780" y="670" width="80" height="30" as="geometry" />
        </mxCell>
      </root>
    </mxGraphModel>
  </diagram>
</mxfile>
